<svg version="1.0" xmlns="http://www.w3.org/2000/svg"
 width="4096.000000pt" height="2812.000000pt" viewBox="0 0 4096.000000 2812.000000"
 preserveAspectRatio="xMidYMid meet">

<g transform="translate(0.000000,2812.000000) scale(0.100000,-0.100000)"
fill="#000000" stroke="none">
<path d="M25579 26827 c-106 -30 -98 -23 -1204 -1152 -291 -297 -642 -655
-780 -795 -137 -140 -360 -367 -495 -505 -134 -137 -366 -374 -515 -525 -149
-151 -489 -498 -755 -770 -526 -537 -1662 -1696 -2260 -2305 -140 -143 -370
-377 -510 -520 -140 -143 -379 -386 -530 -540 -152 -154 -496 -505 -765 -780
-269 -275 -611 -624 -760 -775 -149 -151 -489 -498 -755 -770 -266 -272 -599
-612 -740 -755 -141 -143 -485 -494 -765 -780 -280 -286 -622 -635 -760 -775
-138 -140 -483 -491 -765 -780 -283 -289 -627 -640 -765 -780 -138 -140 -365
-372 -505 -515 -140 -143 -374 -381 -520 -530 -147 -148 -484 -493 -750 -765
-267 -272 -714 -729 -995 -1015 -670 -683 -1054 -1075 -1079 -1101 -12 -12
-122 -125 -246 -250 -124 -126 -446 -454 -715 -729 -270 -275 -607 -619 -750
-765 -143 -146 -377 -384 -520 -530 -143 -146 -379 -386 -525 -535 -147 -148
-482 -490 -745 -760 -263 -269 -594 -607 -735 -750 -303 -309 -597 -608 -1290
-1315 -750 -765 -997 -1016 -1261 -1285 -567 -576 -569 -579 -609 -700 -94
-283 70 -590 365 -684 46 -14 1264 -16 13912 -18 l13861 -3 539 412 c836 639
945 722 1377 1052 109 83 286 219 395 301 108 83 349 267 536 410 377 288 706
539 805 615 36 28 148 113 250 191 102 77 187 145 188 150 2 5 -4494 9 -11230
9 -10856 0 -11236 1 -11299 18 -260 72 -433 353 -378 614 21 99 66 173 295
485 229 312 664 904 1456 1984 233 316 576 783 763 1038 187 254 374 509 415
565 41 57 220 300 397 542 178 241 483 657 679 924 196 267 391 532 433 590
67 91 666 906 996 1356 195 267 744 1014 1155 1574 220 300 587 799 815 1110
228 311 800 1089 1270 1730 471 641 993 1352 1160 1580 168 228 492 669 720
980 228 311 595 810 815 1110 220 300 586 798 812 1107 459 624 1066 1451
1706 2322 487 664 1142 1557 1416 1929 197 269 231 326 245 414 35 216 -154
441 -381 454 -43 2 -92 -1 -119 -9z"/>
<path d="M23279 20896 c-106 -43 -130 -68 -296 -296 -66 -91 -236 -325 -378
-520 -142 -195 -315 -434 -385 -530 -143 -196 -431 -592 -698 -960 -98 -135
-569 -783 -1047 -1440 -477 -657 -885 -1217 -905 -1245 -21 -27 -199 -273
-397 -545 -198 -272 -441 -607 -541 -745 -239 -328 -520 -715 -930 -1280 -184
-253 -351 -482 -372 -510 -20 -27 -248 -340 -505 -695 -257 -355 -484 -667
-505 -695 -42 -56 -286 -392 -760 -1045 -177 -245 -339 -467 -360 -495 -20
-27 -266 -365 -545 -750 -280 -385 -530 -729 -556 -765 -26 -36 -437 -600
-913 -1255 -607 -835 -872 -1206 -887 -1245 -81 -211 32 -455 245 -528 48 -16
637 -17 10912 -20 l10862 -2 788 474 c434 260 1446 868 2249 1351 803 483
1675 1006 1937 1164 l477 286 -1432 6 c-788 3 -5648 9 -10802 13 -5896 5
-9394 11 -9434 17 -221 33 -376 247 -332 461 12 64 103 241 533 1038 23 41 89
165 148 275 148 276 381 710 513 955 282 526 429 800 802 1495 561 1045 914
1704 1065 1985 150 279 593 1104 765 1425 56 105 169 316 252 470 83 154 201
375 263 490 62 116 127 237 145 270 18 33 85 157 148 275 63 118 179 334 257
480 263 489 662 1233 773 1440 60 113 123 230 139 260 130 237 229 433 239
473 28 114 -6 253 -85 344 -109 124 -306 177 -447 119z"/>
</g>
</svg>
